<svg width="48" height="48" viewBox="0 0 48 48" fill="none" xmlns="http://www.w3.org/2000/svg" transform="rotate(-90 24 24)">
  <path d="M21.5 6C18.7386 6 16.5 8.23858 16.5 11V24.5C16.5 30.0228 20.9772 34.5 26.5 34.5C32.0228 34.5 36.5 30.0228 36.5 24.5V14C36.5 12.8954 35.6046 12 34.5 12C33.3954 12 32.5 12.8954 32.5 14V24.5C32.5 27.8137 29.8137 30.5 26.5 30.5C23.1863 30.5 20.5 27.8137 20.5 24.5V11C20.5 10.4477 20.9477 10 21.5 10C22.0523 10 22.5 10.4477 22.5 11V20C22.5 21.1046 23.3954 22 24.5 22C25.6046 22 26.5 21.1046 26.5 20V11C26.5 8.23858 24.2614 6 21.5 6Z" fill="#8B5CF6"/>
  <circle cx="21.5" cy="38" r="3" fill="#8B5CF6"/>
</svg>